<?xml version="1.0" encoding="utf-8"?>
<!-- Generator: Adobe Illustrator 26.0.2, SVG Export Plug-In . SVG Version: 6.00 Build 0)  -->
<svg version="1.1" id="Layer_1" xmlns="http://www.w3.org/2000/svg" xmlns:xlink="http://www.w3.org/1999/xlink" x="0px" y="0px"
	 viewBox="0 0 512 512" style="enable-background:new 0 0 512 512;" xml:space="preserve">
<style type="text/css">
	.st0{fill:#FFFFFF;}
</style>
<g transform="translate(0.000000,512.000000) scale(0.100000,-0.100000)">
	<path class="st0" d="M3595,5096c-71-34-2394-2358-2424-2426c-29-65-28-160,3-225c34-71,2358-2394,2426-2424c92-42,221-21,294,47
		s98,207,55,302c-15,35-257,282-1092,1117L1785,2560l1072,1072c834,835,1077,1083,1092,1118c43,95,18,234-55,302
		C3819,5122,3690,5141,3595,5096z"/>
</g>
</svg>
