<?xml version="1.0" encoding="utf-8"?>
<!-- Generator: Adobe Illustrator 26.0.2, SVG Export Plug-In . SVG Version: 6.00 Build 0)  -->
<svg version="1.1" id="Layer_1" xmlns="http://www.w3.org/2000/svg" xmlns:xlink="http://www.w3.org/1999/xlink" x="0px" y="0px"
	 viewBox="0 0 512 512" style="enable-background:new 0 0 512 512;" xml:space="preserve">
<style type="text/css">
	.st0{fill:#FCFCFC;}
</style>
<g transform="translate(0.000000,512.000000) scale(0.100000,-0.100000)">
	<path class="st0" d="M215,3987c-83-33-146-90-187-167c-31-60-33-213-4-275c28-59,2332-2364,2395-2396c39-20,61-24,141-24
		s102,4,141,24c63,32,2367,2337,2395,2396c29,62,27,215-4,275s-93,122-150,151l-47,24l-2325,2C804,3998,238,3996,215,3987z"/>
</g>
</svg>
