<?xml version="1.0" standalone="no"?>
<!DOCTYPE svg PUBLIC "-//W3C//DTD SVG 20010904//EN"
 "http://www.w3.org/TR/2001/REC-SVG-20010904/DTD/svg10.dtd">
<svg version="1.0" xmlns="http://www.w3.org/2000/svg"
 width="126.000000pt" height="23.000000pt" viewBox="0 0 126.000000 23.000000"
 preserveAspectRatio="xMidYMid meet">
<metadata>
Created by potrace 1.16, written by Peter Selinger 2001-2019
</metadata>
<g transform="translate(0.000000,23.000000) scale(0.100000,-0.100000)"
fill="#000000" stroke="none">
<path d="M73 216 c-10 -5 -24 -17 -31 -25 -8 -10 -11 -11 -6 -2 5 9 3 12 -5 7
-6 -4 -9 -11 -6 -16 3 -5 -1 -14 -8 -22 -15 -15 -16 -76 -2 -99 25 -41 56 -48
181 -45 66 1 126 6 132 10 7 4 18 4 24 0 16 -10 239 -15 253 -6 15 10 38 12
49 4 19 -12 137 -12 130 -1 -4 8 -1 8 13 0 23 -11 161 -10 181 2 6 5 12 4 12
-2 0 -10 84 -8 128 2 12 3 22 2 22 -4 0 -16 79 -7 100 13 21 20 24 39 11 73
-5 11 -3 28 3 38 8 13 7 24 -4 44 -22 39 -61 51 -103 31 -27 -13 -34 -13 -45
-2 -14 16 -79 19 -101 5 -9 -6 -23 -5 -38 2 -24 11 -103 -8 -103 -25 0 -4 -7
-8 -16 -8 -8 0 -12 5 -9 10 3 6 -1 10 -9 10 -9 0 -16 5 -16 10 0 15 -27 12
-44 -5 -19 -19 -45 -19 -52 0 -8 21 -26 19 -52 -5 -22 -21 -43 -19 -75 9 -16
13 -19 13 -27 1 -7 -12 -12 -12 -22 -2 -15 15 -100 16 -115 1 -8 -8 -13 -8
-17 0 -10 16 -46 13 -52 -4 -5 -13 -10 -13 -36 1 -24 12 -32 13 -44 3 -11 -9
-17 -10 -22 -1 -9 13 -154 12 -179 -2z"/>
</g>
</svg>
