<?xml version="1.0" encoding="utf-8"?>
<!-- Generator: Adobe Illustrator 26.0.2, SVG Export Plug-In . SVG Version: 6.00 Build 0)  -->
<svg version="1.1" id="Layer_1" xmlns="http://www.w3.org/2000/svg" xmlns:xlink="http://www.w3.org/1999/xlink" x="0px" y="0px"
	 viewBox="0 0 512 512" style="enable-background:new 0 0 512 512;" xml:space="preserve">
<style type="text/css">
	.st0{fill:#FFFFFF;}
</style>
<g transform="translate(0.000000,512.000000) scale(0.100000,-0.100000)">
	<path class="st0" d="M2285,4789c-737-93-1384-544-1720-1201c-106-206-176-416-221-663c-27-144-27-586,0-730
		c87-476,284-866,606-1199c356-368,832-603,1350-666c121-14,427-12,550,4c488,66,923,276,1274,616c403,390,647,925,674,1477
		c17,338-31,652-144,941c-302,773-981,1307-1804,1418C2734,4801,2399,4803,2285,4789z M2821,4454c406-56,774-235,1067-518
		c450-434,662-1058,566-1666c-85-543-399-1026-861-1324c-179-115-444-222-658-265c-677-136-1388,114-1832,642
		c-486,580-590,1377-269,2052c278,583,814,980,1456,1078C2420,4473,2682,4474,2821,4454z"/>
	<path class="st0" d="M3186,3396c-30-11-113-89-333-308l-293-293l-287,287c-159,157-298,291-311,298c-54,27-154,9-193-36
		c-41-47-55-135-29-186c7-13,141-152,298-310l285-286l-289-297c-159-163-294-306-301-318c-19-34-16-117,6-157c36-69,140-100,214-64
		c18,8,161,147,319,307l286,292l299-297c164-163,311-302,326-308c96-35,200,19,226,116c6,23,9,48,7,55c-2,8-7,28-11,44
		c-4,22-83,106-308,328l-302,297l292,288c160,158,299,301,307,319c22,44,20,98-5,149C3353,3390,3265,3425,3186,3396z"/>
</g>
</svg>
