<?xml version="1.0" standalone="no"?>
<!DOCTYPE svg PUBLIC "-//W3C//DTD SVG 20010904//EN"
 "http://www.w3.org/TR/2001/REC-SVG-20010904/DTD/svg10.dtd">
<svg version="1.0" xmlns="http://www.w3.org/2000/svg"
 width="512.000000pt" height="512.000000pt" viewBox="0 0 512.000000 512.000000"
 preserveAspectRatio="xMidYMid meet">
<metadata>
Created by potrace 1.16, written by Peter Selinger 2001-2019
</metadata>
<g transform="translate(0.000000,512.000000) scale(0.100000,-0.100000)"
fill="#000000" stroke="none">
<path d="M2235 5105 c-600 -81 -1117 -344 -1532 -779 -359 -376 -596 -854
-678 -1366 -26 -160 -32 -539 -11 -710 98 -801 562 -1501 1268 -1914 255 -149
546 -253 862 -308 174 -30 543 -37 727 -13 1102 138 1984 955 2204 2040 47
230 59 584 30 825 -140 1129 -1014 2030 -2151 2216 -136 22 -581 28 -719 9z
m563 -225 c540 -59 1022 -290 1407 -675 353 -353 571 -775 657 -1275 32 -181
32 -559 0 -740 -59 -341 -180 -647 -367 -925 -363 -539 -913 -894 -1565 -1007
-182 -32 -558 -32 -740 0 -342 59 -647 180 -925 367 -540 363 -894 914 -1007
1565 -32 181 -32 559 0 740 86 499 305 923 657 1275 380 380 866 615 1395 674
110 12 376 13 488 1z"/>
<path d="M2510 4443 c-74 -38 -70 18 -70 -991 0 -751 2 -908 14 -935 17 -40
1042 -1062 1074 -1072 88 -26 177 70 143 153 -6 15 -232 248 -501 517 l-490
490 0 873 c0 942 1 921 -52 956 -39 26 -79 29 -118 9z"/>
</g>
</svg>
