<?xml version="1.0" encoding="utf-8"?>
<!-- Generator: Adobe Illustrator 26.0.2, SVG Export Plug-In . SVG Version: 6.00 Build 0)  -->
<svg version="1.1" id="Layer_1" xmlns="http://www.w3.org/2000/svg" xmlns:xlink="http://www.w3.org/1999/xlink" x="0px" y="0px"
	 viewBox="0 0 512 512" style="enable-background:new 0 0 512 512;" xml:space="preserve">
<style type="text/css">
	.st0{fill:#FFFFFF;}
</style>
<g transform="translate(0.000000,512.000000) scale(0.100000,-0.100000)">
	<path class="st0" d="M2235,5105c-600-81-1117-344-1532-779c-359-376-596-854-678-1366c-26-160-32-539-11-710
		c98-801,562-1501,1268-1914c255-149,546-253,862-308c174-30,543-37,727-13c1102,138,1984,955,2204,2040c47,230,59,584,30,825
		c-140,1129-1014,2030-2151,2216C2818,5118,2373,5124,2235,5105z M2798,4880c540-59,1022-290,1407-675c353-353,571-775,657-1275
		c32-181,32-559,0-740c-59-341-180-647-367-925c-363-539-913-894-1565-1007c-182-32-558-32-740,0c-342,59-647,180-925,367
		C725,988,371,1539,258,2190c-32,181-32,559,0,740c86,499,305,923,657,1275c380,380,866,615,1395,674C2420,4891,2686,4892,2798,4880
		z"/>
	<path class="st0" d="M2510,4443c-74-38-70,18-70-991c0-751,2-908,14-935c17-40,1042-1062,1074-1072c88-26,177,70,143,153
		c-6,15-232,248-501,517l-490,490v873c0,942,1,921-52,956C2589,4460,2549,4463,2510,4443z"/>
</g>
</svg>
