<?xml version="1.0" encoding="utf-8"?>
<!-- Generator: Adobe Illustrator 26.0.2, SVG Export Plug-In . SVG Version: 6.00 Build 0)  -->
<svg version="1.1" id="Layer_1" xmlns="http://www.w3.org/2000/svg" xmlns:xlink="http://www.w3.org/1999/xlink" x="0px" y="0px"
	 viewBox="0 0 512 512" style="enable-background:new 0 0 512 512;" xml:space="preserve">
<style type="text/css">
	.st0{fill:#FFFFFF;}
</style>
<g transform="translate(0.000000,512.000000) scale(0.100000,-0.100000)">
	<path class="st0" d="M1675,4260c-164-21-340-84-484-172c-103-64-297-251-360-348c-86-133-144-273-179-434c-23-108-22-369,2-474
		c37-169,102-316,196-452c71-102,1348-1379,1438-1438c96-63,163-85,262-86c106-1,177,20,276,85c88,58,298,259,325,311
		c60,117-44,251-172,223c-23-5-65-39-139-109c-134-130-201-183-250-197c-35-11-44-9-97,16c-50,24-147,117-699,669
		c-384,384-660,667-687,707c-60,86-111,194-138,294c-31,112-31,326-1,436c88,325,342,569,668,645c54,13,115,19,194,18
		c230-1,421-76,596-235c96-86,172-86,268,0c176,159,375,236,606,235c247-1,465-95,633-274c253-268,315-657,157-988
		c-44-92-51-151-25-202c44-84,161-106,236-42c39,32,109,175,139,282c28,100,50,248,50,335c0,222-65,454-182,644
		c-73,118-261,306-379,379c-398,244-899,239-1284-12l-85-56l-85,56c-130,85-267,140-419,169C1955,4265,1768,4272,1675,4260z"/>
	<path class="st0" d="M3420,2542c-22-12-44-35-57-62c-20-39-23-60-23-162v-118h-118c-102,0-123-3-162-22c-104-54-109-206-8-268
		c28-17,51-20,161-20h127v-112c0-137,10-177,55-217c50-43,112-51,172-20c71,37,83,68,83,221v128h128c151,0,183,12,220,81
		c40,74,20,149-52,203c-24,18-45,21-162,24l-134,4v126c0,109-3,132-20,160C3588,2556,3494,2581,3420,2542z"/>
</g>
</svg>
