<?xml version="1.0" standalone="no"?>
<!DOCTYPE svg PUBLIC "-//W3C//DTD SVG 20010904//EN"
 "http://www.w3.org/TR/2001/REC-SVG-20010904/DTD/svg10.dtd">
<svg version="1.0" xmlns="http://www.w3.org/2000/svg"
 width="512.000000pt" height="512.000000pt" viewBox="0 0 512.000000 512.000000"
 preserveAspectRatio="xMidYMid meet">
<metadata>
Created by potrace 1.16, written by Peter Selinger 2001-2019
</metadata>
<g transform="translate(0.000000,512.000000) scale(0.100000,-0.100000)"
fill="#000000" stroke="none">
<path d="M1675 4260 c-164 -21 -340 -84 -484 -172 -103 -64 -297 -251 -360
-348 -86 -133 -144 -273 -179 -434 -23 -108 -22 -369 2 -474 37 -169 102 -316
196 -452 71 -102 1348 -1379 1438 -1438 96 -63 163 -85 262 -86 106 -1 177 20
276 85 88 58 298 259 325 311 60 117 -44 251 -172 223 -23 -5 -65 -39 -139
-109 -134 -130 -201 -183 -250 -197 -35 -11 -44 -9 -97 16 -50 24 -147 117
-699 669 -384 384 -660 667 -687 707 -60 86 -111 194 -138 294 -31 112 -31
326 -1 436 88 325 342 569 668 645 54 13 115 19 194 18 230 -1 421 -76 596
-235 96 -86 172 -86 268 0 176 159 375 236 606 235 247 -1 465 -95 633 -274
253 -268 315 -657 157 -988 -44 -92 -51 -151 -25 -202 44 -84 161 -106 236
-42 39 32 109 175 139 282 28 100 50 248 50 335 0 222 -65 454 -182 644 -73
118 -261 306 -379 379 -398 244 -899 239 -1284 -12 l-85 -56 -85 56 c-130 85
-267 140 -419 169 -101 20 -288 27 -381 15z"/>
<path d="M3420 2542 c-22 -12 -44 -35 -57 -62 -20 -39 -23 -60 -23 -162 l0
-118 -118 0 c-102 0 -123 -3 -162 -22 -104 -54 -109 -206 -8 -268 28 -17 51
-20 161 -20 l127 0 0 -112 c0 -137 10 -177 55 -217 50 -43 112 -51 172 -20 71
37 83 68 83 221 l0 128 128 0 c151 0 183 12 220 81 40 74 20 149 -52 203 -24
18 -45 21 -162 24 l-134 4 0 126 c0 109 -3 132 -20 160 -42 68 -136 93 -210
54z"/>
</g>
</svg>
