<?xml version="1.0" encoding="utf-8"?>
<!-- Generator: Adobe Illustrator 26.0.2, SVG Export Plug-In . SVG Version: 6.00 Build 0)  -->
<svg version="1.1" id="Layer_1" xmlns="http://www.w3.org/2000/svg" xmlns:xlink="http://www.w3.org/1999/xlink" x="0px" y="0px"
	 viewBox="0 0 512 512" style="enable-background:new 0 0 512 512;" xml:space="preserve">
<style type="text/css">
	.st0{fill:#FFFFFF;}
</style>
<g transform="translate(0.000000,512.000000) scale(0.100000,-0.100000)">
	<path class="st0" d="M1215,4664C584,4558,102,4064,10,3429c-8-55-11-143-7-245c4-133,10-178,35-276c54-209,140-395,286-618
		c350-534,1060-1159,1911-1682c325-200,317-197,449-122c766,439,1476,1005,1906,1519c257,308,440,650,505,945c23,102,31,370,15,480
		c-37,259-135,488-296,695c-223,288-551,481-919,540c-115,19-344,19-459,0c-307-50-586-193-798-407l-77-78l-93,92
		c-211,209-478,345-775,393C1583,4683,1324,4683,1215,4664z M3890,4394c269-53,523-203,689-409c181-223,272-473,272-748
		c0-145-13-225-61-370c-71-211-191-420-376-652c-121-152-477-505-669-664c-328-272-761-577-1103-775l-82-48l-98,58
		c-53,31-200,126-327,210C1273,1566,661,2162,410,2675c-98,199-141,373-141,561c0,571,416,1062,982,1160c143,25,371,15,504-20
		c268-72,480-218,655-449c60-79,86-98,143-104c58-6,91,18,165,114C2998,4304,3448,4480,3890,4394z"/>
</g>
</svg>
