<?xml version="1.0" encoding="utf-8"?>
<!-- Generator: Adobe Illustrator 26.0.2, SVG Export Plug-In . SVG Version: 6.00 Build 0)  -->
<svg version="1.1" id="Layer_1" xmlns="http://www.w3.org/2000/svg" xmlns:xlink="http://www.w3.org/1999/xlink" x="0px" y="0px"
	 viewBox="0 0 512 512" style="enable-background:new 0 0 512 512;" xml:space="preserve">
<style type="text/css">
	.st0{fill:#FFFFFF;}
</style>
<g transform="translate(0.000000,512.000000) scale(0.100000,-0.100000)">
	<path class="st0" d="M2506,4795c-32-11-264-238-1099-1072C825,3141,342,2652,333,2636c-31-59-14-155,33-197c48-42,134-55,185-29
		c13,7,471,458,1016,1003l993,992l997-997c895-894,1002-998,1040-1008c122-31,234,81,203,203c-10,38-120,151-1073,1105
		c-584,585-1073,1069-1087,1077C2598,4807,2548,4811,2506,4795z"/>
	<path class="st0" d="M872,2220c-18-11-41-34-52-52c-19-32-20-52-20-604c0-534,1-575,20-645c37-143,107-266,208-367
		c74-74,132-114,235-162c158-73,102-70,1300-70c1039,0,1075,1,1155,20c226,54,413,205,523,420c76,150,73,117,76,780
		c3,582,3,596-17,628c-30,48-75,72-140,72s-110-24-140-72c-19-32-20-52-20-553c0-575-3-607-61-716c-69-128-207-227-349-249
		c-88-13-1972-13-2060,0c-142,22-280,121-348,248c-59,111-62,141-62,717c0,501-1,521-20,553c-11,18-34,41-52,52
		C1003,2247,917,2247,872,2220z"/>
</g>
</svg>
