<?xml version="1.0" standalone="no"?>
<!DOCTYPE svg PUBLIC "-//W3C//DTD SVG 20010904//EN"
 "http://www.w3.org/TR/2001/REC-SVG-20010904/DTD/svg10.dtd">
<svg version="1.0" xmlns="http://www.w3.org/2000/svg"
 width="512.000000pt" height="512.000000pt" viewBox="0 0 512.000000 512.000000"
 preserveAspectRatio="xMidYMid meet">
<metadata>
Created by potrace 1.16, written by Peter Selinger 2001-2019
</metadata>
<g transform="translate(0.000000,512.000000) scale(0.100000,-0.100000)"
fill="#000000" stroke="none">
<path d="M2506 4795 c-32 -11 -264 -238 -1099 -1072 -582 -582 -1065 -1071
-1074 -1087 -31 -59 -14 -155 33 -197 48 -42 134 -55 185 -29 13 7 471 458
1016 1003 l993 992 997 -997 c895 -894 1002 -998 1040 -1008 122 -31 234 81
203 203 -10 38 -120 151 -1073 1105 -584 585 -1073 1069 -1087 1077 -42 22
-92 26 -134 10z"/>
<path d="M872 2220 c-18 -11 -41 -34 -52 -52 -19 -32 -20 -52 -20 -604 0 -534
1 -575 20 -645 37 -143 107 -266 208 -367 74 -74 132 -114 235 -162 158 -73
102 -70 1300 -70 1039 0 1075 1 1155 20 226 54 413 205 523 420 76 150 73 117
76 780 3 582 3 596 -17 628 -30 48 -75 72 -140 72 -65 0 -110 -24 -140 -72
-19 -32 -20 -52 -20 -553 0 -575 -3 -607 -61 -716 -69 -128 -207 -227 -349
-249 -88 -13 -1972 -13 -2060 0 -142 22 -280 121 -348 248 -59 111 -62 141
-62 717 0 501 -1 521 -20 553 -11 18 -34 41 -52 52 -45 27 -131 27 -176 0z"/>
</g>
</svg>
