<svg width="22" height="17" viewBox="0 0 22 17" fill="none" xmlns="http://www.w3.org/2000/svg">
<path d="M13.9597 2.04697C14.2794 2.09478 14.4169 2.47662 14.1831 2.70306L12.8769 3.92129L13.1863 5.64785C13.2034 5.95996 12.9009 6.19902 12.6053 6.05625L11.0069 5.24277L9.39469 6.06621C9.09906 6.20898 8.76562 5.96992 8.81375 5.66113L9.12312 3.93125L7.81687 2.70306C7.58312 2.47662 7.72062 2.09478 8.04031 2.04697L9.83813 1.79662L10.6494 0.210237C10.7972 -0.0760073 11.2166 -0.0640874 11.3506 0.210237L12.1619 1.79662L13.9597 2.04697V2.04697ZM13.2 8.5C13.8084 8.5 14.3 8.9748 14.3 9.5625V15.9375C14.3 16.5252 13.8084 17 13.2 17H8.8C8.19156 17 7.7 16.5252 7.7 15.9375V9.5625C7.7 8.9748 8.19156 8.5 8.8 8.5H13.2ZM5.5 10.625C6.10844 10.625 6.6 11.0998 6.6 11.6875V15.9375C6.6 16.5252 6.10844 17 5.5 17H1.1C0.492594 17 0 16.5252 0 15.9375V11.6875C0 11.0998 0.492594 10.625 1.1 10.625H5.5ZM15.4 13.8125C15.4 13.2248 15.8916 12.75 16.5 12.75H20.9C21.5084 12.75 22 13.2248 22 13.8125V15.9375C22 16.5252 21.5084 17 20.9 17H16.5C15.8916 17 15.4 16.5252 15.4 15.9375V13.8125Z" fill="#FAFAFA"/>
</svg>
