<?xml version="1.0" standalone="no"?>
<!DOCTYPE svg PUBLIC "-//W3C//DTD SVG 20010904//EN"
 "http://www.w3.org/TR/2001/REC-SVG-20010904/DTD/svg10.dtd">
<svg version="1.0" xmlns="http://www.w3.org/2000/svg"
 width="512.000000pt" height="512.000000pt" viewBox="0 0 512.000000 512.000000"
 preserveAspectRatio="xMidYMid meet">
<metadata>
Created by potrace 1.16, written by Peter Selinger 2001-2019
</metadata>
<g transform="translate(0.000000,512.000000) scale(0.100000,-0.100000)"
fill="#000000" stroke="none">
<path d="M1920 5114 c-505 -63 -938 -272 -1290 -624 -205 -205 -353 -423 -466
-687 -55 -128 -106 -302 -137 -462 -19 -101 -22 -149 -22 -376 0 -227 3 -275
22 -376 89 -462 286 -834 614 -1159 311 -309 693 -508 1133 -591 160 -31 486
-38 656 -14 247 33 445 93 668 200 127 62 319 180 392 243 l35 31 640 -639
c514 -512 648 -640 679 -650 59 -19 147 -9 194 22 74 49 104 166 67 256 -11
26 -211 232 -650 672 l-634 635 31 35 c111 129 272 425 343 630 89 256 119
467 112 765 -7 302 -55 532 -165 785 -169 392 -468 746 -818 972 -229 147
-504 255 -788 309 -89 17 -157 22 -346 24 -129 2 -251 1 -270 -1z m500 -420
c642 -98 1185 -556 1393 -1174 103 -306 118 -669 41 -975 -159 -626 -653
-1120 -1279 -1279 -253 -64 -587 -64 -840 0 -736 187 -1272 825 -1325 1578
-77 1113 906 2018 2010 1850z"/>
</g>
</svg>
