<?xml version="1.0" encoding="utf-8"?>
<!-- Generator: Adobe Illustrator 26.0.2, SVG Export Plug-In . SVG Version: 6.00 Build 0)  -->
<svg version="1.1" id="Layer_1" xmlns="http://www.w3.org/2000/svg" xmlns:xlink="http://www.w3.org/1999/xlink" x="0px" y="0px"
	 viewBox="0 0 512 512" style="enable-background:new 0 0 512 512;" xml:space="preserve">
<style type="text/css">
	.st0{fill:#FFFFFF;}
</style>
<g transform="translate(0.000000,512.000000) scale(0.100000,-0.100000)">
	<path class="st0" d="M1920,5114c-505-63-938-272-1290-624c-205-205-353-423-466-687c-55-128-106-302-137-462C8,3240,5,3192,5,2965
		s3-275,22-376c89-462,286-834,614-1159c311-309,693-508,1133-591c160-31,486-38,656-14c247,33,445,93,668,200
		c127,62,319,180,392,243l35,31l640-639c514-512,648-640,679-650c59-19,147-9,194,22c74,49,104,166,67,256c-11,26-211,232-650,672
		l-634,635l31,35c111,129,272,425,343,630c89,256,119,467,112,765c-7,302-55,532-165,785c-169,392-468,746-818,972
		c-229,147-504,255-788,309c-89,17-157,22-346,24C2061,5117,1939,5116,1920,5114z M2420,4694c642-98,1185-556,1393-1174
		c103-306,118-669,41-975c-159-626-653-1120-1279-1279c-253-64-587-64-840,0C999,1453,463,2091,410,2844
		C333,3957,1316,4862,2420,4694z"/>
</g>
</svg>
