<?xml version="1.0" standalone="no"?>
<!DOCTYPE svg PUBLIC "-//W3C//DTD SVG 20010904//EN"
 "http://www.w3.org/TR/2001/REC-SVG-20010904/DTD/svg10.dtd">
<svg version="1.0" xmlns="http://www.w3.org/2000/svg"
 width="512.000000pt" height="512.000000pt" viewBox="0 0 512.000000 512.000000"
 preserveAspectRatio="xMidYMid meet">
<metadata>
Created by potrace 1.16, written by Peter Selinger 2001-2019
</metadata>
<g transform="translate(0.000000,512.000000) scale(0.100000,-0.100000)"
fill="#000000" stroke="none">
<path d="M2525 3775 c-1364 -634 -2490 -1160 -2503 -1169 -28 -22 -31 -95 -4
-118 18 -17 1411 -701 1450 -713 15 -4 34 0 57 14 19 11 321 234 672 496 l638
477 -136 -139 c-75 -76 -308 -315 -517 -531 l-382 -392 0 -59 c0 -66 96 -1340
105 -1385 3 -16 13 -38 22 -48 21 -23 84 -24 111 0 11 9 181 204 377 432 196
228 362 419 368 423 8 5 186 -75 474 -212 271 -129 474 -221 491 -221 17 0 37
9 49 22 26 28 1323 4151 1323 4204 0 47 -29 74 -77 73 -28 -1 -692 -305 -2518
-1154z"/>
</g>
</svg>
