<?xml version="1.0" encoding="utf-8"?>
<!-- Generator: Adobe Illustrator 26.0.2, SVG Export Plug-In . SVG Version: 6.00 Build 0)  -->
<svg version="1.1" id="Layer_1" xmlns="http://www.w3.org/2000/svg" xmlns:xlink="http://www.w3.org/1999/xlink" x="0px" y="0px"
	 viewBox="0 0 512 512" style="enable-background:new 0 0 512 512;" xml:space="preserve">
<style type="text/css">
	.st0{fill:#FFFFFF;}
</style>
<path class="st0" d="M252.5,134.5c-136.4,63.4-249,116-250.3,116.9c-2.8,2.2-3.1,9.5-0.4,11.8c1.8,1.7,141.1,70.1,145,71.3
	c1.5,0.4,3.4,0,5.7-1.4c1.9-1.1,32.1-23.4,67.2-49.6l63.8-47.7l-13.6,13.9c-7.5,7.6-30.8,31.5-51.7,53.1L180,342v5.9
	c0,6.6,9.6,134,10.5,138.5c0.3,1.6,1.3,3.8,2.2,4.8c2.1,2.3,8.4,2.4,11.1,0c1.1-0.9,18.1-20.4,37.7-43.2s36.2-41.9,36.8-42.3
	c0.8-0.5,18.6,7.5,47.4,21.2c27.1,12.9,47.4,22.1,49.1,22.1c1.7,0,3.7-0.9,4.9-2.2C382.3,444,512,31.7,512,26.4
	c0-4.7-2.9-7.4-7.7-7.3C501.5,19.2,435.1,49.6,252.5,134.5z"/>
</svg>
