<?xml version="1.0" encoding="utf-8"?>
<!-- Generator: Adobe Illustrator 26.0.2, SVG Export Plug-In . SVG Version: 6.00 Build 0)  -->
<svg version="1.1" id="Layer_1" xmlns="http://www.w3.org/2000/svg" xmlns:xlink="http://www.w3.org/1999/xlink" x="0px" y="0px"
	 viewBox="0 0 512 512" style="enable-background:new 0 0 512 512;" xml:space="preserve">
<style type="text/css">
	.st0{fill:#FFFFFF;}
</style>
<g transform="translate(0.000000,512.000000) scale(0.100000,-0.100000)">
	<path class="st0" d="M2255,4946c-132-43-234-130-291-250c-28-60-37-93-44-170c-5-53-14-104-19-114c-21-38-70-74-109-79
		c-60-8-85,2-149,58c-153,136-361,165-543,77c-54-26-96-62-241-207c-147-147-182-187-208-241c-86-180-57-392,73-537
		c23-26,48-58,54-70c17-31,15-89-4-129c-25-53-68-73-179-83c-183-18-317-109-393-268l-37-78v-295v-295l37-78c76-159,210-250,393-267
		c132-13,181-46,192-130c8-58-2-83-58-147c-142-161-169-374-71-557c33-64,314-352,396-407c104-70,244-95,369-65c83,19,128,42,196,98
		c82,67,103,78,144,78c52,0,103-25,126-64c12-19,21-61,26-111c17-199,105-332,275-414l75-36h295h295l78,37c159,76,250,210,267,392
		c5,53,14,104,19,114c21,38,70,74,109,79c58,8,87-2,136-47c172-159,418-184,603-61c80,54,361,343,395,407c32,60,58,160,58,227
		c0,116-54,252-134,337c-19,19-39,45-45,57c-16,31-14,89,5,129c25,53,68,73,179,83c183,18,317,109,393,268l37,78v295v295l-37,78
		c-76,159-210,250-393,267c-132,13-181,46-192,130c-8,58,2,83,58,147c142,161,169,374,71,557c-33,64-314,352-396,407
		c-104,70-244,95-369,65c-83-19-128-42-196-98c-30-24-65-51-80-60c-35-24-106-23-145,1c-49,31-65,69-76,176c-17,183-108,317-267,393
		l-78,37l-280,2C2368,4959,2285,4956,2255,4946z M2800,4615c50-30,69-69,79-171c16-156,75-266,186-351c92-70,150-88,290-88
		c117,0,122,1,196,36c41,20,99,57,128,83c78,69,122,81,184,50c44-22,284-261,308-306c33-65,23-112-39-180c-54-60-88-116-113-190
		c-17-53-20-79-17-163c6-117,29-187,89-267c83-112,197-173,353-189c102-10,141-29,171-79c18-32,20-52,20-240s-2-208-20-240
		c-30-50-69-69-171-79c-156-16-270-77-353-189c-68-90-86-149-86-287c0-117,1-122,36-196c20-41,57-99,83-128c71-80,81-122,47-189
		c-24-45-264-284-308-306c-63-31-105-20-186,51c-106,93-211,129-356,121c-104-6-179-33-256-91c-111-85-170-195-186-351
		c-10-102-29-141-79-171c-32-18-52-20-240-20s-208,2-240,20c-52,31-69,69-80,181c-7,81-15,110-45,172c-48,97-121,169-221,219
		c-78,38-78,38-203,38c-171,0-194-10-365-148c-45-37-101-45-147-22s-286,261-310,307c-33,65-23,112,39,180c92,100,132,202,132,332
		c0,193-97,350-266,432c-56,27-91,36-169,44c-111,12-149,29-180,80c-18,32-20,52-20,240s2,208,20,240c30,50,69,69,171,79
		c156,16,266,75,351,186c62,82,85,151,91,270c3,84,0,110-17,163c-25,74-59,130-113,190c-62,68-72,115-39,180c11,20,81,98,158,173
		c145,143,169,158,237,145c19-4,59-29,94-59c106-92,197-126,333-127c133,0,248,48,338,141c82,84,117,166,132,302
		c10,97,26,138,64,163c43,28,84,33,275,31C2746,4635,2769,4633,2800,4615z"/>
	<path class="st0" d="M2330,3660c-155-33-268-80-398-167c-223-148-391-386-462-653c-33-126-39-370-12-500c95-453,427-787,877-881
		c123-26,327-26,450,0c427,90,753,399,865,821c33,126,39,370,12,500c-95,453-427,787-877,881C2664,3686,2449,3686,2330,3660z
		 M2755,3330c77-19,244-103,309-158c85-71,151-154,202-257c61-123,84-222,84-355c0-311-173-582-455-716c-115-54-211-75-339-75
		c-127,1-230,26-351,85c-164,82-285,207-363,376c-52,111-72,204-72,333C1770,3075,2250,3449,2755,3330z"/>
</g>
</svg>
