<?xml version="1.0" standalone="no"?>
<!DOCTYPE svg PUBLIC "-//W3C//DTD SVG 20010904//EN"
 "http://www.w3.org/TR/2001/REC-SVG-20010904/DTD/svg10.dtd">
<svg version="1.0" xmlns="http://www.w3.org/2000/svg"
 width="512.000000pt" height="512.000000pt" viewBox="0 0 512.000000 512.000000"
 preserveAspectRatio="xMidYMid meet">
<metadata>
Created by potrace 1.16, written by Peter Selinger 2001-2019
</metadata>
<g transform="translate(0.000000,512.000000) scale(0.100000,-0.100000)"
fill="#000000" stroke="none">
<path d="M2255 4946 c-132 -43 -234 -130 -291 -250 -28 -60 -37 -93 -44 -170
-5 -53 -14 -104 -19 -114 -21 -38 -70 -74 -109 -79 -60 -8 -85 2 -149 58 -153
136 -361 165 -543 77 -54 -26 -96 -62 -241 -207 -147 -147 -182 -187 -208
-241 -86 -180 -57 -392 73 -537 23 -26 48 -58 54 -70 17 -31 15 -89 -4 -129
-25 -53 -68 -73 -179 -83 -183 -18 -317 -109 -393 -268 l-37 -78 0 -295 0
-295 37 -78 c76 -159 210 -250 393 -267 132 -13 181 -46 192 -130 8 -58 -2
-83 -58 -147 -142 -161 -169 -374 -71 -557 33 -64 314 -352 396 -407 104 -70
244 -95 369 -65 83 19 128 42 196 98 82 67 103 78 144 78 52 0 103 -25 126
-64 12 -19 21 -61 26 -111 17 -199 105 -332 275 -414 l75 -36 295 0 295 0 78
37 c159 76 250 210 267 392 5 53 14 104 19 114 21 38 70 74 109 79 58 8 87 -2
136 -47 172 -159 418 -184 603 -61 80 54 361 343 395 407 32 60 58 160 58 227
0 116 -54 252 -134 337 -19 19 -39 45 -45 57 -16 31 -14 89 5 129 25 53 68 73
179 83 183 18 317 109 393 268 l37 78 0 295 0 295 -37 78 c-76 159 -210 250
-393 267 -132 13 -181 46 -192 130 -8 58 2 83 58 147 142 161 169 374 71 557
-33 64 -314 352 -396 407 -104 70 -244 95 -369 65 -83 -19 -128 -42 -196 -98
-30 -24 -65 -51 -80 -60 -35 -24 -106 -23 -145 1 -49 31 -65 69 -76 176 -17
183 -108 317 -267 393 l-78 37 -280 2 c-207 2 -290 -1 -320 -11z m545 -331
c50 -30 69 -69 79 -171 16 -156 75 -266 186 -351 92 -70 150 -88 290 -88 117
0 122 1 196 36 41 20 99 57 128 83 78 69 122 81 184 50 44 -22 284 -261 308
-306 33 -65 23 -112 -39 -180 -54 -60 -88 -116 -113 -190 -17 -53 -20 -79 -17
-163 6 -117 29 -187 89 -267 83 -112 197 -173 353 -189 102 -10 141 -29 171
-79 18 -32 20 -52 20 -240 0 -188 -2 -208 -20 -240 -30 -50 -69 -69 -171 -79
-156 -16 -270 -77 -353 -189 -68 -90 -86 -149 -86 -287 0 -117 1 -122 36 -196
20 -41 57 -99 83 -128 71 -80 81 -122 47 -189 -24 -45 -264 -284 -308 -306
-63 -31 -105 -20 -186 51 -106 93 -211 129 -356 121 -104 -6 -179 -33 -256
-91 -111 -85 -170 -195 -186 -351 -10 -102 -29 -141 -79 -171 -32 -18 -52 -20
-240 -20 -188 0 -208 2 -240 20 -52 31 -69 69 -80 181 -7 81 -15 110 -45 172
-48 97 -121 169 -221 219 -78 38 -78 38 -203 38 -171 0 -194 -10 -365 -148
-45 -37 -101 -45 -147 -22 -46 23 -286 261 -310 307 -33 65 -23 112 39 180 92
100 132 202 132 332 0 193 -97 350 -266 432 -56 27 -91 36 -169 44 -111 12
-149 29 -180 80 -18 32 -20 52 -20 240 0 188 2 208 20 240 30 50 69 69 171 79
156 16 266 75 351 186 62 82 85 151 91 270 3 84 0 110 -17 163 -25 74 -59 130
-113 190 -62 68 -72 115 -39 180 11 20 81 98 158 173 145 143 169 158 237 145
19 -4 59 -29 94 -59 106 -92 197 -126 333 -127 133 0 248 48 338 141 82 84
117 166 132 302 10 97 26 138 64 163 43 28 84 33 275 31 166 -2 189 -4 220
-22z"/>
<path d="M2330 3660 c-155 -33 -268 -80 -398 -167 -223 -148 -391 -386 -462
-653 -33 -126 -39 -370 -12 -500 95 -453 427 -787 877 -881 123 -26 327 -26
450 0 427 90 753 399 865 821 33 126 39 370 12 500 -95 453 -427 787 -877 881
-121 25 -336 25 -455 -1z m425 -330 c77 -19 244 -103 309 -158 85 -71 151
-154 202 -257 61 -123 84 -222 84 -355 0 -311 -173 -582 -455 -716 -115 -54
-211 -75 -339 -75 -127 1 -230 26 -351 85 -164 82 -285 207 -363 376 -52 111
-72 204 -72 333 0 512 480 886 985 767z"/>
</g>
</svg>
