<?xml version="1.0" encoding="utf-8"?>
<!-- Generator: Adobe Illustrator 26.0.2, SVG Export Plug-In . SVG Version: 6.00 Build 0)  -->
<svg version="1.1" id="Layer_1" xmlns="http://www.w3.org/2000/svg" xmlns:xlink="http://www.w3.org/1999/xlink" x="0px" y="0px"
	 viewBox="0 0 512 512" style="enable-background:new 0 0 512 512;" xml:space="preserve">
<style type="text/css">
	.st0{fill:#FFFFFF;}
</style>
<g transform="translate(0.000000,512.000000) scale(0.100000,-0.100000)">
	<path class="st0" d="M430,4024c-194-42-355-195-414-393C2,3582,0,3466,0,2560c0-1119-3-1054,62-1185c42-82,153-190,240-233
		c132-65,83-63,1426-60l1217,3l66,22c169,58,309,200,362,368l22,70v1015v1015l-22,70c-53,170-191,309-362,368l-66,22l-1225,2
		C694,4038,484,4036,430,4024z M2891,3800c110-21,198-90,246-194l28-61v-985v-985l-28-61c-35-76-94-135-172-171l-60-28H1695H485
		l-67,33c-80,39-139,102-168,178c-20,54-20,74-20,1034s0,980,20,1034c38,99,138,185,242,205C556,3812,2825,3812,2891,3800z"/>
	<path class="st0" d="M4345,3394c-341-201-632-379-647-395l-28-29v-370c0-264,3-376,12-395c12-27,1220-973,1280-1002
		c43-22,97-11,131,27l27,30v1221v1221l-29,29c-25,24-38,29-78,29C4968,3760,4928,3738,4345,3394z M4888,2020l-3-469l-492,382
		l-493,382v272v271l493,291l492,291l3-476C4889,2703,4889,2278,4888,2020z"/>
</g>
</svg>
