<?xml version="1.0" standalone="no"?>
<!DOCTYPE svg PUBLIC "-//W3C//DTD SVG 20010904//EN"
 "http://www.w3.org/TR/2001/REC-SVG-20010904/DTD/svg10.dtd">
<svg version="1.0" xmlns="http://www.w3.org/2000/svg"
 width="512.000000pt" height="512.000000pt" viewBox="0 0 512.000000 512.000000"
 preserveAspectRatio="xMidYMid meet">
<metadata>
Created by potrace 1.16, written by Peter Selinger 2001-2019
</metadata>
<g transform="translate(0.000000,512.000000) scale(0.100000,-0.100000)"
fill="#000000" stroke="none">
<path d="M430 4024 c-194 -42 -355 -195 -414 -393 -14 -49 -16 -165 -16 -1071
0 -1119 -3 -1054 62 -1185 42 -82 153 -190 240 -233 132 -65 83 -63 1426 -60
l1217 3 66 22 c169 58 309 200 362 368 l22 70 0 1015 0 1015 -22 70 c-53 170
-191 309 -362 368 l-66 22 -1225 2 c-1026 1 -1236 -1 -1290 -13z m2461 -224
c110 -21 198 -90 246 -194 l28 -61 0 -985 0 -985 -28 -61 c-35 -76 -94 -135
-172 -171 l-60 -28 -1210 0 -1210 0 -67 33 c-80 39 -139 102 -168 178 -20 54
-20 74 -20 1034 0 960 0 980 20 1034 38 99 138 185 242 205 64 13 2333 13
2399 1z"/>
<path d="M4345 3394 c-341 -201 -632 -379 -647 -395 l-28 -29 0 -370 c0 -264
3 -376 12 -395 12 -27 1220 -973 1280 -1002 43 -22 97 -11 131 27 l27 30 0
1221 0 1221 -29 29 c-25 24 -38 29 -78 29 -45 0 -85 -22 -668 -366z m543
-1374 l-3 -469 -492 382 -493 382 0 272 0 271 493 291 492 291 3 -476 c1 -261
1 -686 0 -944z"/>
</g>
</svg>
