<svg width="18" height="11" viewBox="0 0 18 11" fill="none" xmlns="http://www.w3.org/2000/svg">
<path fill-rule="evenodd" clip-rule="evenodd" d="M0 2.06957C0 1.52068 0.237053 0.99428 0.65901 0.606162C1.08097 0.218043 1.65326 1.4333e-08 2.25 1.4333e-08H10.6875C11.2332 -5.90323e-05 11.7604 0.182321 12.1708 0.513178C12.5812 0.844034 12.8469 1.30081 12.9184 1.79845L16.4171 0.368383C16.5884 0.298195 16.776 0.268488 16.9629 0.281963C17.1498 0.295438 17.3301 0.351667 17.4874 0.445539C17.6447 0.53941 17.7739 0.667948 17.8635 0.819469C17.953 0.97099 17.9999 1.14069 18 1.31314V9.03469C17.9998 9.207 17.9529 9.37655 17.8634 9.52795C17.774 9.67935 17.6448 9.8078 17.4877 9.90164C17.3306 9.99549 17.1505 10.0518 16.9637 10.0653C16.7769 10.0789 16.5895 10.0494 16.4182 9.97944L12.9184 8.54937C12.8469 9.04701 12.5812 9.50379 12.1708 9.83465C11.7604 10.1655 11.2332 10.3479 10.6875 10.3478H2.25C1.65326 10.3478 1.08097 10.1298 0.65901 9.74166C0.237053 9.35355 0 8.82714 0 8.27826V2.06957ZM12.9375 7.42457L16.875 9.03469V1.31314L12.9375 2.92326V7.42457ZM2.25 1.03478C1.95163 1.03478 1.66548 1.1438 1.4545 1.33786C1.24353 1.53192 1.125 1.79512 1.125 2.06957V8.27826C1.125 8.5527 1.24353 8.8159 1.4545 9.00996C1.66548 9.20402 1.95163 9.31304 2.25 9.31304H10.6875C10.9859 9.31304 11.272 9.20402 11.483 9.00996C11.694 8.8159 11.8125 8.5527 11.8125 8.27826V2.06957C11.8125 1.79512 11.694 1.53192 11.483 1.33786C11.272 1.1438 10.9859 1.03478 10.6875 1.03478H2.25Z" fill="#C30000"/>
</svg>
